{
    "asset" : {
        "generator" : "Khronos glTF Blender I/O v1.4.40",
        "version" : "2.0"
    },
    "scene" : 0,
    "scenes" : [
        {
            "name" : "Scene",
            "nodes" : [
                0
            ]
        }
    ],
    "nodes" : [
        {
            "mesh" : 0,
            "name" : "Detail6"
        }
    ],
    "meshes" : [
        {
            "name" : "Detail6",
            "primitives" : [
                {
                    "attributes" : {
                        "POSITION" : 0,
                        "NORMAL" : 1
                    },
                    "indices" : 2
                }
            ]
        }
    ],
    "accessors" : [
        {
            "bufferView" : 0,
            "componentType" : 5126,
            "count" : 17667,
            "max" : [
                2.331082344055176,
                1.310637354850769,
                2.222661018371582
            ],
            "min" : [
                -2.310925006866455,
                -1.0347564220428467,
                -2.3782238960266113
            ],
            "type" : "VEC3"
        },
        {
            "bufferView" : 1,
            "componentType" : 5126,
            "count" : 17667,
            "type" : "VEC3"
        },
        {
            "bufferView" : 2,
            "componentType" : 5123,
            "count" : 17673,
            "type" : "SCALAR"
        }
    ],
    "bufferViews" : [
        {
            "buffer" : 0,
            "byteLength" : 212004,
            "byteOffset" : 0
        },
        {
            "buffer" : 0,
            "byteLength" : 212004,
            "byteOffset" : 212004
        },
        {
            "buffer" : 0,
            "byteLength" : 35346,
            "byteOffset" : 424008
        }
    ],
    "buffers" : [
        {
            "byteLength" : 459356,
            "uri" : "data:application/octet-stream;base64,"
        }
    ]
}
