{
    "asset" : {
        "generator" : "Khronos glTF Blender I/O v1.4.40",
        "version" : "2.0"
    },
    "scene" : 0,
    "scenes" : [
        {
            "name" : "Scene",
            "nodes" : [
                0
            ]
        }
    ],
    "nodes" : [
        {
            "mesh" : 0,
            "name" : "Detail10"
        }
    ],
    "meshes" : [
        {
            "name" : "Detail10",
            "primitives" : [
                {
                    "attributes" : {
                        "POSITION" : 0,
                        "NORMAL" : 1
                    },
                    "indices" : 2
                }
            ]
        }
    ],
    "accessors" : [
        {
            "bufferView" : 0,
            "componentType" : 5126,
            "count" : 1670,
            "max" : [
                3.7253894805908203,
                1.9976997375488281,
                3.7329471111297607
            ],
            "min" : [
                -3.7337779998779297,
                -0.5587263107299805,
                -3.7329494953155518
            ],
            "type" : "VEC3"
        },
        {
            "bufferView" : 1,
            "componentType" : 5126,
            "count" : 1670,
            "type" : "VEC3"
        },
        {
            "bufferView" : 2,
            "componentType" : 5123,
            "count" : 2916,
            "type" : "SCALAR"
        }
    ],
    "bufferViews" : [
        {
            "buffer" : 0,
            "byteLength" : 20040,
            "byteOffset" : 0
        },
        {
            "buffer" : 0,
            "byteLength" : 20040,
            "byteOffset" : 20040
        },
        {
            "buffer" : 0,
            "byteLength" : 5832,
            "byteOffset" : 40080
        }
    ],
    "buffers" : [
        {
            "byteLength" : 45912,
            "uri" : "data:application/octet-stream;base64,"
        }
    ]
}
