{
    "asset" : {
        "generator" : "Khronos glTF Blender I/O v1.4.40",
        "version" : "2.0"
    },
    "scene" : 0,
    "scenes" : [
        {
            "name" : "Scene",
            "nodes" : [
                0
            ]
        }
    ],
    "nodes" : [
        {
            "mesh" : 0,
            "name" : "Detail4"
        }
    ],
    "meshes" : [
        {
            "name" : "Detail4",
            "primitives" : [
                {
                    "attributes" : {
                        "POSITION" : 0,
                        "NORMAL" : 1
                    },
                    "indices" : 2
                }
            ]
        }
    ],
    "accessors" : [
        {
            "bufferView" : 0,
            "componentType" : 5126,
            "count" : 21204,
            "max" : [
                2.9852230548858643,
                1.1207793951034546,
                0.9440585970878601
            ],
            "min" : [
                -3.0003175735473633,
                -0.09440690279006958,
                -1.2222379446029663
            ],
            "type" : "VEC3"
        },
        {
            "bufferView" : 1,
            "componentType" : 5126,
            "count" : 21204,
            "type" : "VEC3"
        },
        {
            "bufferView" : 2,
            "componentType" : 5123,
            "count" : 21204,
            "type" : "SCALAR"
        }
    ],
    "bufferViews" : [
        {
            "buffer" : 0,
            "byteLength" : 254448,
            "byteOffset" : 0
        },
        {
            "buffer" : 0,
            "byteLength" : 254448,
            "byteOffset" : 254448
        },
        {
            "buffer" : 0,
            "byteLength" : 42408,
            "byteOffset" : 508896
        }
    ],
    "buffers" : [
        {
            "byteLength" : 551304,
            "uri" : "data:application/octet-stream;base64,"
        }
    ]
}
