{
    "asset" : {
        "generator" : "Khronos glTF Blender I/O v1.4.40",
        "version" : "2.0"
    },
    "scene" : 0,
    "scenes" : [
        {
            "name" : "Scene",
            "nodes" : [
                0
            ]
        }
    ],
    "nodes" : [
        {
            "mesh" : 0,
            "name" : "Detail8"
        }
    ],
    "meshes" : [
        {
            "name" : "Detail8",
            "primitives" : [
                {
                    "attributes" : {
                        "POSITION" : 0,
                        "NORMAL" : 1
                    },
                    "indices" : 2
                }
            ]
        }
    ],
    "accessors" : [
        {
            "bufferView" : 0,
            "componentType" : 5126,
            "count" : 26979,
            "max" : [
                3.1944169998168945,
                3.21226167678833,
                3.1339502334594727
            ],
            "min" : [
                -3.054009437561035,
                -0.33869868516921997,
                -3.112395763397217
            ],
            "type" : "VEC3"
        },
        {
            "bufferView" : 1,
            "componentType" : 5126,
            "count" : 26979,
            "type" : "VEC3"
        },
        {
            "bufferView" : 2,
            "componentType" : 5123,
            "count" : 26979,
            "type" : "SCALAR"
        }
    ],
    "bufferViews" : [
        {
            "buffer" : 0,
            "byteLength" : 323748,
            "byteOffset" : 0
        },
        {
            "buffer" : 0,
            "byteLength" : 323748,
            "byteOffset" : 323748
        },
        {
            "buffer" : 0,
            "byteLength" : 53958,
            "byteOffset" : 647496
        }
    ],
    "buffers" : [
        {
            "byteLength" : 701456,
            "uri" : "data:application/octet-stream;base64,"
        }
    ]
}
