{
    "asset" : {
        "generator" : "Khronos glTF Blender I/O v1.4.40",
        "version" : "2.0"
    },
    "scene" : 0,
    "scenes" : [
        {
            "name" : "Scene",
            "nodes" : [
                0
            ]
        }
    ],
    "nodes" : [
        {
            "mesh" : 0,
            "name" : "Detail2"
        }
    ],
    "meshes" : [
        {
            "name" : "Detail2",
            "primitives" : [
                {
                    "attributes" : {
                        "POSITION" : 0,
                        "NORMAL" : 1
                    },
                    "indices" : 2
                }
            ]
        }
    ],
    "accessors" : [
        {
            "bufferView" : 0,
            "componentType" : 5126,
            "count" : 20175,
            "max" : [
                2.2132675647735596,
                1.3149802684783936,
                3.1204335689544678
            ],
            "min" : [
                -2.2155346870422363,
                -0.394216388463974,
                -3.1544182300567627
            ],
            "type" : "VEC3"
        },
        {
            "bufferView" : 1,
            "componentType" : 5126,
            "count" : 20175,
            "type" : "VEC3"
        },
        {
            "bufferView" : 2,
            "componentType" : 5123,
            "count" : 20175,
            "type" : "SCALAR"
        }
    ],
    "bufferViews" : [
        {
            "buffer" : 0,
            "byteLength" : 242100,
            "byteOffset" : 0
        },
        {
            "buffer" : 0,
            "byteLength" : 242100,
            "byteOffset" : 242100
        },
        {
            "buffer" : 0,
            "byteLength" : 40350,
            "byteOffset" : 484200
        }
    ],
    "buffers" : [
        {
            "byteLength" : 524552,
            "uri" : "data:application/octet-stream;base64,"
        }
    ]
}
