{
    "asset" : {
        "generator" : "Khronos glTF Blender I/O v1.4.40",
        "version" : "2.0"
    },
    "scene" : 0,
    "scenes" : [
        {
            "name" : "Scene",
            "nodes" : [
                0
            ]
        }
    ],
    "nodes" : [
        {
            "mesh" : 0,
            "name" : "Detail9"
        }
    ],
    "meshes" : [
        {
            "name" : "Detail9",
            "primitives" : [
                {
                    "attributes" : {
                        "POSITION" : 0,
                        "NORMAL" : 1
                    },
                    "indices" : 2
                }
            ]
        }
    ],
    "accessors" : [
        {
            "bufferView" : 0,
            "componentType" : 5126,
            "count" : 39048,
            "max" : [
                4.665456295013428,
                1.6182819604873657,
                3.1761412620544434
            ],
            "min" : [
                -4.8289103507995605,
                -0.7689383029937744,
                -4.11855411529541
            ],
            "type" : "VEC3"
        },
        {
            "bufferView" : 1,
            "componentType" : 5126,
            "count" : 39048,
            "type" : "VEC3"
        },
        {
            "bufferView" : 2,
            "componentType" : 5123,
            "count" : 39048,
            "type" : "SCALAR"
        }
    ],
    "bufferViews" : [
        {
            "buffer" : 0,
            "byteLength" : 468576,
            "byteOffset" : 0
        },
        {
            "buffer" : 0,
            "byteLength" : 468576,
            "byteOffset" : 468576
        },
        {
            "buffer" : 0,
            "byteLength" : 78096,
            "byteOffset" : 937152
        }
    ],
    "buffers" : [
        {
            "byteLength" : 1015248,
            "uri" : "data:application/octet-stream;base64,"
        }
    ]
}
