{
    "asset" : {
        "generator" : "Khronos glTF Blender I/O v1.4.40",
        "version" : "2.0"
    },
    "scene" : 0,
    "scenes" : [
        {
            "name" : "Scene",
            "nodes" : [
                0
            ]
        }
    ],
    "nodes" : [
        {
            "mesh" : 0,
            "name" : "Detail5"
        }
    ],
    "meshes" : [
        {
            "name" : "Detail5",
            "primitives" : [
                {
                    "attributes" : {
                        "POSITION" : 0,
                        "NORMAL" : 1
                    },
                    "indices" : 2
                }
            ]
        }
    ],
    "accessors" : [
        {
            "bufferView" : 0,
            "componentType" : 5126,
            "count" : 28098,
            "max" : [
                2.053630828857422,
                0.5086182355880737,
                2.856215000152588
            ],
            "min" : [
                -2.0515992641448975,
                -0.21421973407268524,
                -2.5402090549468994
            ],
            "type" : "VEC3"
        },
        {
            "bufferView" : 1,
            "componentType" : 5126,
            "count" : 28098,
            "type" : "VEC3"
        },
        {
            "bufferView" : 2,
            "componentType" : 5123,
            "count" : 28098,
            "type" : "SCALAR"
        }
    ],
    "bufferViews" : [
        {
            "buffer" : 0,
            "byteLength" : 337176,
            "byteOffset" : 0
        },
        {
            "buffer" : 0,
            "byteLength" : 337176,
            "byteOffset" : 337176
        },
        {
            "buffer" : 0,
            "byteLength" : 56196,
            "byteOffset" : 674352
        }
    ],
    "buffers" : [
        {
            "byteLength" : 730548,
            "uri" : "data:application/octet-stream;base64,"
        }
    ]
}
