{
    "asset" : {
        "generator" : "Khronos glTF Blender I/O v1.4.40",
        "version" : "2.0"
    },
    "scene" : 0,
    "scenes" : [
        {
            "name" : "Scene",
            "nodes" : [
                0
            ]
        }
    ],
    "nodes" : [
        {
            "mesh" : 0,
            "name" : "Detail1"
        }
    ],
    "meshes" : [
        {
            "name" : "Detail1",
            "primitives" : [
                {
                    "attributes" : {
                        "POSITION" : 0,
                        "NORMAL" : 1
                    },
                    "indices" : 2
                }
            ]
        }
    ],
    "accessors" : [
        {
            "bufferView" : 0,
            "componentType" : 5126,
            "count" : 27120,
            "max" : [
                1.5626899003982544,
                2.1110572814941406,
                0.8034584522247314
            ],
            "min" : [
                -1.6312838792800903,
                -0.29603099822998047,
                -0.17260050773620605
            ],
            "type" : "VEC3"
        },
        {
            "bufferView" : 1,
            "componentType" : 5126,
            "count" : 27120,
            "type" : "VEC3"
        },
        {
            "bufferView" : 2,
            "componentType" : 5123,
            "count" : 27120,
            "type" : "SCALAR"
        }
    ],
    "bufferViews" : [
        {
            "buffer" : 0,
            "byteLength" : 325440,
            "byteOffset" : 0
        },
        {
            "buffer" : 0,
            "byteLength" : 325440,
            "byteOffset" : 325440
        },
        {
            "buffer" : 0,
            "byteLength" : 54240,
            "byteOffset" : 650880
        }
    ],
    "buffers" : [
        {
            "byteLength" : 705120,
            "uri" : "data:application/octet-stream;base64,"
        }
    ]
}
