{
    "asset" : {
        "generator" : "Khronos glTF Blender I/O v1.4.40",
        "version" : "2.0"
    },
    "scene" : 0,
    "scenes" : [
        {
            "name" : "Scene",
            "nodes" : [
                0
            ]
        }
    ],
    "nodes" : [
        {
            "mesh" : 0,
            "name" : "Detail7"
        }
    ],
    "meshes" : [
        {
            "name" : "Detail7",
            "primitives" : [
                {
                    "attributes" : {
                        "POSITION" : 0,
                        "NORMAL" : 1
                    },
                    "indices" : 2
                }
            ]
        }
    ],
    "accessors" : [
        {
            "bufferView" : 0,
            "componentType" : 5126,
            "count" : 30681,
            "max" : [
                3.4455504417419434,
                2.8070907592773438,
                2.8468966484069824
            ],
            "min" : [
                -3.7676267623901367,
                -1.309126377105713,
                -3.500056028366089
            ],
            "type" : "VEC3"
        },
        {
            "bufferView" : 1,
            "componentType" : 5126,
            "count" : 30681,
            "type" : "VEC3"
        },
        {
            "bufferView" : 2,
            "componentType" : 5123,
            "count" : 30687,
            "type" : "SCALAR"
        }
    ],
    "bufferViews" : [
        {
            "buffer" : 0,
            "byteLength" : 368172,
            "byteOffset" : 0
        },
        {
            "buffer" : 0,
            "byteLength" : 368172,
            "byteOffset" : 368172
        },
        {
            "buffer" : 0,
            "byteLength" : 61374,
            "byteOffset" : 736344
        }
    ],
    "buffers" : [
        {
            "byteLength" : 797720,
            "uri" : "data:application/octet-stream;base64,"
        }
    ]
}
