{
    "asset" : {
        "generator" : "Khronos glTF Blender I/O v1.4.40",
        "version" : "2.0"
    },
    "scene" : 0,
    "scenes" : [
        {
            "name" : "Scene",
            "nodes" : [
                0
            ]
        }
    ],
    "nodes" : [
        {
            "mesh" : 0,
            "name" : "Detail11"
        }
    ],
    "meshes" : [
        {
            "name" : "Detail11",
            "primitives" : [
                {
                    "attributes" : {
                        "POSITION" : 0,
                        "NORMAL" : 1
                    },
                    "indices" : 2
                }
            ]
        }
    ],
    "accessors" : [
        {
            "bufferView" : 0,
            "componentType" : 5126,
            "count" : 31792,
            "max" : [
                3.400972366333008,
                0.6358574032783508,
                1.3919626474380493
            ],
            "min" : [
                -3.8948678970336914,
                -0.5848219990730286,
                -1.5217864513397217
            ],
            "type" : "VEC3"
        },
        {
            "bufferView" : 1,
            "componentType" : 5126,
            "count" : 31792,
            "type" : "VEC3"
        },
        {
            "bufferView" : 2,
            "componentType" : 5123,
            "count" : 31794,
            "type" : "SCALAR"
        }
    ],
    "bufferViews" : [
        {
            "buffer" : 0,
            "byteLength" : 381504,
            "byteOffset" : 0
        },
        {
            "buffer" : 0,
            "byteLength" : 381504,
            "byteOffset" : 381504
        },
        {
            "buffer" : 0,
            "byteLength" : 63588,
            "byteOffset" : 763008
        }
    ],
    "buffers" : [
        {
            "byteLength" : 826596,
            "uri" : "data:application/octet-stream;base64,"
        }
    ]
}
