{
    "asset" : {
        "generator" : "Khronos glTF Blender I/O v1.4.40",
        "version" : "2.0"
    },
    "scene" : 0,
    "scenes" : [
        {
            "name" : "Scene",
            "nodes" : [
                0
            ]
        }
    ],
    "nodes" : [
        {
            "mesh" : 0,
            "name" : "Detail3"
        }
    ],
    "meshes" : [
        {
            "name" : "detail3",
            "primitives" : [
                {
                    "attributes" : {
                        "POSITION" : 0,
                        "NORMAL" : 1
                    },
                    "indices" : 2
                }
            ]
        }
    ],
    "accessors" : [
        {
            "bufferView" : 0,
            "componentType" : 5126,
            "count" : 38238,
            "max" : [
                5.0718159675598145,
                2.89306640625,
                2.689570903778076
            ],
            "min" : [
                -4.675417900085449,
                -0.9808181524276733,
                -2.447871208190918
            ],
            "type" : "VEC3"
        },
        {
            "bufferView" : 1,
            "componentType" : 5126,
            "count" : 38238,
            "type" : "VEC3"
        },
        {
            "bufferView" : 2,
            "componentType" : 5123,
            "count" : 38238,
            "type" : "SCALAR"
        }
    ],
    "bufferViews" : [
        {
            "buffer" : 0,
            "byteLength" : 458856,
            "byteOffset" : 0
        },
        {
            "buffer" : 0,
            "byteLength" : 458856,
            "byteOffset" : 458856
        },
        {
            "buffer" : 0,
            "byteLength" : 76476,
            "byteOffset" : 917712
        }
    ],
    "buffers" : [
        {
            "byteLength" : 994188,
            "uri" : "data:application/octet-stream;base64,"
        }
    ]
}
