<svg width="1000" height="1000" viewBox="0 0 1000 1000" fill="none" xmlns="http://www.w3.org/2000/svg">
<path d="M885.421 485.14C885.421 453.424 872.753 423.369 850.362 401.265C853.907 389.92 855.702 378.185 855.702 366.263C855.702 308.917 814.555 261.022 760.24 250.49C764.391 240.143 766.544 229.05 766.544 217.667C766.544 181.341 744.472 150.08 713.038 136.569C660.668 94.8583 603.389 70 559.438 70C535.007 70 513.342 82.014 500 100.432C486.658 82.014 464.993 70 440.561 70C396.61 70 339.332 94.8583 286.961 136.569C255.528 150.08 233.456 181.341 233.456 217.667C233.456 229.05 235.608 240.143 239.76 250.49C185.444 261.022 144.298 308.917 144.298 366.263C144.298 378.185 146.091 389.918 149.638 401.265C127.247 423.369 114.579 453.424 114.579 485.14C114.579 509.934 122.285 532.953 135.406 551.962C121.771 571.673 114.579 594.667 114.579 618.877C114.579 661.762 137.959 701.054 174.976 721.772C174.339 727.07 174.017 732.415 174.017 737.754C174.017 795.602 211.751 846.747 266.5 864.177C290.314 904.934 333.693 930 381.123 930C433.122 930 478.21 899.945 500 856.307C521.79 899.945 566.877 930 618.877 930C666.307 930 709.686 904.934 733.5 864.177C788.248 846.745 825.982 795.6 825.982 737.754C825.982 732.415 825.661 727.07 825.024 721.772C862.041 701.054 885.421 661.762 885.421 618.877C885.421 594.667 878.229 571.673 864.593 551.962C877.714 532.953 885.421 509.934 885.421 485.14Z" fill="white"/>
<path d="M885.421 485.14C885.421 453.424 872.753 423.369 850.362 401.265C853.907 389.92 855.702 378.185 855.702 366.263C855.702 308.917 814.555 261.022 760.24 250.49C764.391 240.143 766.544 229.05 766.544 217.667C766.544 181.341 744.472 150.08 713.038 136.569C660.668 94.8583 603.389 70 559.438 70C535.007 70 513.342 82.014 500 100.432C486.658 82.014 464.993 70 440.561 70C396.61 70 339.332 94.8583 286.961 136.569C255.528 150.08 233.456 181.341 233.456 217.667C233.456 229.05 235.608 240.143 239.76 250.49C185.444 261.022 144.298 308.917 144.298 366.263C144.298 378.185 146.091 389.918 149.638 401.265C127.247 423.369 114.579 453.424 114.579 485.14C114.579 509.934 122.285 532.953 135.406 551.962C121.771 571.673 114.579 594.667 114.579 618.877C114.579 661.762 137.959 701.054 174.976 721.772C174.339 727.07 174.017 732.415 174.017 737.754C174.017 795.602 211.751 846.747 266.5 864.177C290.314 904.934 333.693 930 381.123 930C433.122 930 478.21 899.945 500 856.307C521.79 899.945 566.877 930 618.877 930C666.307 930 709.686 904.934 733.5 864.177C788.248 846.745 825.982 795.6 825.982 737.754C825.982 732.415 825.661 727.07 825.024 721.772C862.041 701.054 885.421 661.762 885.421 618.877C885.421 594.667 878.229 571.673 864.593 551.962C877.714 532.953 885.421 509.934 885.421 485.14ZM381.123 902.138C342.063 902.138 306.47 880.603 288.234 845.939C286.426 842.505 283.273 839.98 279.526 838.972C233.809 826.668 201.879 785.046 201.879 737.754C201.879 730.677 202.592 723.589 203.998 716.683C205.302 710.28 201.979 703.829 196.008 701.173C163.467 686.707 142.441 654.402 142.441 618.877C142.441 602.719 146.631 587.274 154.627 573.594C175.423 591.929 202.689 603.089 232.527 603.089C240.221 603.089 246.458 596.853 246.458 589.158C246.458 581.462 240.221 575.227 232.527 575.227C182.853 575.227 142.441 534.814 142.441 485.14C142.441 458.401 154.239 433.199 174.812 416.004C179.456 412.122 181.063 405.686 178.787 400.078C174.389 389.238 172.16 377.861 172.16 366.263C172.16 316.59 212.572 276.177 262.246 276.177C311.92 276.177 352.333 316.59 352.333 366.263C352.333 373.959 358.57 380.194 366.263 380.194C373.957 380.194 380.194 373.959 380.194 366.263C380.194 303.775 331.34 252.508 269.823 248.585C264.247 239.264 261.317 228.665 261.317 217.667C261.317 192.835 276.393 171.463 297.868 162.206C298.699 161.959 299.512 161.636 300.298 161.227C306.951 158.697 314.156 157.3 321.685 157.3C345.009 157.3 365.831 170.341 376.026 191.338C379.388 198.261 387.724 201.147 394.643 197.783C401.564 194.423 404.451 186.089 401.089 179.168C389.45 155.201 367.422 137.975 342.055 131.874C377.611 110.179 412.614 97.8618 440.561 97.8618C465.654 97.8618 486.069 118.275 486.069 143.369V323.637C473.552 313.707 457.743 307.754 440.561 307.754C432.868 307.754 426.631 313.989 426.631 321.685C426.631 329.38 432.868 335.616 440.561 335.616C465.654 335.616 486.069 356.029 486.069 381.123V715.983C468.748 693.636 444.33 676.77 415.607 669.052C408.179 667.063 400.535 671.461 398.539 678.891C396.542 686.323 400.948 693.964 408.377 695.959C454.121 708.25 486.069 749.877 486.069 797.192C486.069 855.059 438.99 902.138 381.123 902.138ZM803.992 701.175C798.02 703.831 794.697 710.28 796.001 716.685C797.407 723.591 798.121 730.679 798.121 737.756C798.121 785.048 766.191 826.67 720.474 838.974C716.727 839.982 713.571 842.507 711.766 845.941C693.53 880.603 657.937 902.138 618.877 902.138C561.01 902.138 513.931 855.059 513.931 797.192C513.931 793.275 513.749 789.391 513.409 785.544C513.739 784.354 513.931 783.103 513.931 781.807V321.685C513.931 296.59 534.346 276.177 559.438 276.177C567.132 276.177 573.369 269.942 573.369 262.246C573.369 254.551 567.132 248.315 559.438 248.315C542.257 248.315 526.448 254.268 513.931 264.198V143.369C513.931 118.275 534.346 97.8618 559.438 97.8618C587.386 97.8618 622.389 110.179 657.944 131.874C632.577 137.973 610.55 155.201 598.911 179.168C595.549 186.091 598.436 194.425 605.356 197.783C612.277 201.145 620.612 198.261 623.974 191.338C634.169 170.341 654.991 157.3 678.315 157.3C685.843 157.3 693.05 158.697 699.702 161.227C700.486 161.636 701.299 161.957 702.126 162.204C723.605 171.461 738.682 192.833 738.682 217.667C738.682 228.665 735.753 239.264 730.177 248.585C668.66 252.508 619.805 303.775 619.805 366.263C619.805 373.959 626.043 380.194 633.736 380.194C641.43 380.194 647.667 373.959 647.667 366.263C647.667 316.59 688.08 276.177 737.754 276.177C787.427 276.177 827.84 316.59 827.84 366.263C827.84 377.861 825.611 389.238 821.214 400.078C818.939 405.688 820.546 412.122 825.189 416.004C845.761 433.199 857.559 458.401 857.559 485.14C857.559 534.814 817.147 575.227 767.473 575.227C759.779 575.227 753.542 581.462 753.542 589.158C753.542 596.853 759.779 603.089 767.473 603.089C797.311 603.089 824.576 591.929 845.372 573.594C853.371 587.274 857.559 602.719 857.559 618.877C857.559 654.402 836.533 686.707 803.992 701.175Z" fill="#303438"/>
<path d="M737.754 515.789C708.897 515.789 684.716 495.429 678.789 468.323C736.604 460.778 781.404 411.242 781.404 351.404C781.404 343.709 775.167 337.473 767.473 337.473C759.78 337.473 753.542 343.709 753.542 351.404C753.542 401.078 713.13 441.49 663.456 441.49C639.043 441.49 616.189 431.886 599.103 414.444C593.72 408.95 584.899 408.859 579.402 414.243C573.906 419.628 573.815 428.447 579.2 433.944C598.521 453.664 623.48 465.712 650.517 468.635C656.914 511.039 693.595 543.65 737.754 543.65C745.447 543.65 745 537.695 745 530C745 522.305 745.447 515.789 737.754 515.789Z" fill="#303438"/>
<path d="M350.93 483.183C345.003 510.289 320.823 530.648 291.966 530.648C284.272 530.648 278.035 536.884 278.035 544.579C278.035 552.274 284.272 558.51 291.966 558.51C336.125 558.51 372.806 525.899 379.203 483.495C406.24 480.571 431.198 468.524 450.52 448.803C455.904 443.307 455.813 434.486 450.317 429.103C444.823 423.722 436.002 423.808 430.617 429.304C413.53 446.745 390.676 456.35 366.264 456.35C316.59 456.35 276.177 415.937 276.177 366.264C276.177 358.568 269.94 352.333 262.246 352.333C254.553 352.333 248.315 358.568 248.315 366.264C248.315 426.101 293.115 475.638 350.93 483.183Z" fill="#303438"/>
<path d="M750 400H260V600H750V400Z" fill="white"/>
<path d="M693.175 679.244C687.807 679.244 682.532 679.637 677.351 680.336C677.362 679.662 677.387 678.987 677.387 678.315C665 620 660 615 595 607.138C587.306 607.138 581.069 613.374 581.069 621.069C581.069 628.764 587.306 635 595 635C620 640 645 630 649.525 678.315C650 680 649.356 684.693 649.025 687.849C605.804 705.365 575.227 747.763 575.227 797.192C575.227 804.887 581.464 811.123 589.158 811.123C596.851 811.123 603.089 804.887 603.089 797.192C603.089 747.518 643.501 707.105 693.175 707.105C700.869 707.105 707.106 700.87 707.106 693.175C707.106 685.479 700.869 679.244 693.175 679.244Z" fill="#303438"/>
<path d="M392.72 459.12H422.64V570.16H392.72V534.96H342.96C337.52 534.96 332.56 534.64 328.24 533.68C326 533.36 324.08 532.88 322.16 532.24C316.4 530.32 311.92 527.6 308.24 524.4C304.72 520.88 302 516.88 300.4 512.24C299.28 509.2 298.64 505.84 298.16 502.48C298 500.72 298 498.8 298 496.88V458.96H328.24V497.52C328.24 500.08 328.72 502.16 329.36 503.92C330 505.84 331.28 507.28 332.88 508.4C334.64 509.52 336.72 510.16 339.6 510.8C342.16 511.12 345.52 511.44 349.52 511.44H392.72V459.12ZM438.781 459.12H574.941V570.16H545.021V483.44H468.701V570.16H438.781V459.12ZM677.049 458.64H706.969L652.089 569.68L651.929 570H621.849L637.049 539.44L590.969 458.64H621.209L651.609 510L677.049 458.64Z" fill="#2E68BF"/>
<path d="M409.914 604.017C409.914 596.322 403.676 590.086 395.983 590.086C330.946 590.086 278.035 642.998 278.035 708.035C278.035 708.707 278.059 709.381 278.07 710.055C272.89 709.357 267.614 708.963 262.246 708.963C254.553 708.963 248.315 715.199 248.315 722.894C248.315 730.59 254.553 736.825 262.246 736.825C311.92 736.825 352.333 777.238 352.333 826.911C352.333 834.607 358.57 840.842 366.264 840.842C373.957 840.842 380.195 834.607 380.195 826.911C380.195 777.483 349.617 735.085 306.396 717.569C306.065 714.413 305.896 711.22 305.896 708.035C305.896 658.361 346.309 617.948 395.983 617.948C403.676 617.948 409.914 611.713 409.914 604.017Z" fill="#303438"/>
<path d="M514 601C514 593.268 507.732 587 500 587C492.268 587 486 593.268 486 601C486 608.732 492.268 615 500 615C507.732 615 514 608.732 514 601Z" fill="#303438"/>
<path d="M514 401C514 393.268 507.732 387 500 387C492.268 387 486 393.268 486 401C486 408.732 492.268 415 500 415C507.732 415 514 408.732 514 401Z" fill="#303438"/>
<path d="M285 408C285 400.268 278.732 394 271 394C263.268 394 257 400.268 257 408C257 415.732 263.268 422 271 422C278.732 422 285 415.732 285 408Z" fill="#303438"/>
<path d="M729.606 417.646C729.866 415.901 730.483 414.228 731.418 412.731L738.305 401.712C743.136 393.982 755.071 397.384 755.1 406.5V420.5C755.1 428.232 748.832 434.5 741.1 434.5H740C733.205 434.5 727.998 428.461 728.998 421.74L729.606 417.646Z" fill="#303438"/>
</svg>
