{
    "asset" : {
        "generator" : "Khronos glTF Blender I/O v1.4.40",
        "version" : "2.0"
    },
    "scene" : 0,
    "scenes" : [
        {
            "name" : "Scene",
            "nodes" : [
                0
            ]
        }
    ],
    "nodes" : [
        {
            "mesh" : 0,
            "name" : "model"
        }
    ],
    "meshes" : [
        {
            "name" : "model",
            "primitives" : [
                {
                    "attributes" : {
                        "POSITION" : 0,
                        "NORMAL" : 1
                    },
                    "indices" : 2
                }
            ]
        }
    ],
    "accessors" : [
        {
            "bufferView" : 0,
            "componentType" : 5126,
            "count" : 93707,
            "max" : [
                1.8822178840637207,
                0.5652264952659607,
                1.8802942037582397
            ],
            "min" : [
                -1.8863576650619507,
                -0.13859738409519196,
                -1.888360619544983
            ],
            "type" : "VEC3"
        },
        {
            "bufferView" : 1,
            "componentType" : 5126,
            "count" : 93707,
            "type" : "VEC3"
        },
        {
            "bufferView" : 2,
            "componentType" : 5125,
            "count" : 94224,
            "type" : "SCALAR"
        }
    ],
    "bufferViews" : [
        {
            "buffer" : 0,
            "byteLength" : 1124484,
            "byteOffset" : 0
        },
        {
            "buffer" : 0,
            "byteLength" : 1124484,
            "byteOffset" : 1124484
        },
        {
            "buffer" : 0,
            "byteLength" : 376896,
            "byteOffset" : 2248968
        }
    ],
    "buffers" : [
        {
            "byteLength" : 2625864,
            "uri" : "data:application/octet-stream;base64,"
        }
    ]
}
